#!OML:ASF F:\VICON\USERDATA\INSTALL\rory3\rory3.ASF
:FULLY-SPECIFIED
:DEGREES
2587
root 4.23657 18.0095 8.88419 1072.7 -53.5803 -351.751
lowerback 13.4895 -5.53675 -8.89676
upperback 1.8041 -8.51359 3.52879
thorax -3.73662 -4.14928 10.078
lowerneck 7.05513 -21.3256 -15.137
upperneck 30.3166 -39.281 15.71
head 16.4217 -18.4548 2.19476
rclavicle 3.06128e-014 3.18055e-015
rhumerus -30.3156 -5.92472 -80.6037
rradius 33.1676
rwrist 6.59793
rhand -12.9855 9.61464
rfingers 7.12502
rthumb 13.1072 -19.9535
lclavicle 3.06128e-014 3.18055e-015
lhumerus -38.3381 9.98753 74.2099
lradius 38.697
lwrist 0.00240683
lhand -21.1455 26.8957
lfingers 7.12502
lthumb 5.23385 56.811
rfemur -16.5932 6.19511 16.295
rtibia 59.8696
rfoot -9.89212 -3.37066
rtoes -1.86793
lfemur -8.22666 4.78676 -24.5702
ltibia 16.8609
lfoot -3.24049 -3.4777
ltoes 5.08137
2588
root 4.29365 18.0079 8.81125 1072.68 -53.6357 -351.766
lowerback 13.4198 -5.49974 -8.72861
upperback 1.79467 -8.4341 3.53268
thorax -3.75102 -4.10997 9.97104
lowerneck 7.02834 -21.3332 -15.0569
upperneck 30.4411 -39.277 15.5723
head 16.4254 -18.4461 2.14123
rclavicle -2.72335e-014 4.77083e-015
rhumerus -30.2586 -5.8853 -80.5491
rradius 33.111
rwrist 5.90996
rhand -13.4268 9.04643
rfingers 7.12502
rthumb 12.6817 -20.5485
lclavicle -2.72335e-014 4.77083e-015
lhumerus -38.7384 10.1399 74.0073
lradius 38.594
lwrist 0.0447167
lhand -20.8407 27.1765
lfingers 7.12502
lthumb 5.52811 57.0844
rfemur -15.4086 6.80935 16.226
rtibia 59.4097
rfoot -9.84485 -3.26804
rtoes -2.50208
lfemur -8.47096 4.54755 -24.4913
ltibia 16.7936
lfoot -2.97643 -3.27832
ltoes 5.13662
2589
root 4.3527 18.0046 8.73438 1072.77 -53.6317 -351.896
lowerback 13.3406 -5.49768 -8.48715
upperback 1.79397 -8.38971 3.53809
thorax -3.75296 -4.0903 9.82596
lowerneck 7.09689 -21.3226 -15.036
upperneck 30.4753 -39.3073 15.6071
head 16.4454 -18.4591 2.15299
rclavicle 2.06736e-014 9.54166e-015
rhumerus -30.1533 -6.27444 -80.3669
rradius 32.9429
rwrist 6.03973
rhand -13.4038 9.05917
rfingers 7.12502
rthumb 12.7039 -20.5344
lclavicle 2.06736e-014 9.54166e-015
lhumerus -39.0614 10.3311 73.7768
lradius 38.3351
lwrist -0.127958
lhand -20.6265 27.2056
lfingers 7.12502
lthumb 5.73498 57.108
rfemur -14.2205 7.40038 16.2449
rtibia 58.7796
rfoot -9.70812 -2.88663
rtoes -2.23519
lfemur -8.80618 4.24976 -24.3296
ltibia 16.7922
lfoot -2.79776 -3.16533
ltoes 3.45557
2590
root 4.41138 18.0033 8.65871 1073.06 -53.72 -352.259
lowerback 13.1918 -5.51603 -8.08324
upperback 1.85569 -8.3441 3.55062
thorax -3.67237 -4.08037 9.58207
lowerneck 7.15192 -21.252 -15.0262
upperneck 30.4549 -39.2953 15.7945
head 16.4853 -18.4488 2.22587
rclavicle 1.19867e-013 -2.94201e-014
rhumerus -29.9984 -6.58244 -80.3003
rradius 32.8194
rwrist 6.18385
rhand -13.5314 9.083
rfingers 7.12502
rthumb 12.5809 -20.5182
lclavicle 1.19867e-013 -2.94201e-014
lhumerus -39.387 10.6348 73.4877
lradius 38.1068
lwrist -0.365846
lhand -20.5712 27.2026
lfingers 7.12502
lthumb 5.78835 57.1035
rfemur -12.9937 7.97141 16.4338
rtibia 57.9633
rfoot -9.50155 -2.5738
rtoes -2.8264
lfemur -9.09481 4.01536 -24.004
ltibia 16.7354
lfoot -2.53322 -3.11543
ltoes 0.812777
2591
root 4.46637 18.0111 8.58043 1073.36 -53.8405 -352.569
lowerback 12.9976 -5.49175 -7.72222
upperback 1.88138 -8.24718 3.53823
thorax -3.61347 -4.04041 9.32733
lowerneck 7.25865 -21.2386 -14.8787
upperneck 30.4241 -39.2998 15.8602
head 16.4378 -18.4493 2.25727
rclavicle -1.17084e-013 4.29375e-014
rhumerus -29.9256 -6.87109 -80.2821
rradius 32.7494
rwrist 6.28275
rhand -13.5688 9.07342
rfingers 7.12502
rthumb 12.5448 -20.53
lclavicle -1.17084e-013 4.29375e-014
lhumerus -39.7012 10.8339 73.1675
lradius 37.9215
lwrist -0.485584
lhand -20.411 27.3015
lfingers 7.12502
lthumb 5.943 57.1982
rfemur -11.8219 8.51927 16.579
rtibia 56.9828
rfoot -9.2542 -2.11717
rtoes -3.37191
lfemur -9.45939 3.2891 -23.6545
ltibia 16.7458
lfoot -2.12363 -2.65905
ltoes -0.137942
2592
root 4.51764 18.0177 8.50118 1073.37 -53.9242 -352.471
lowerback 12.7999 -5.44812 -7.6669
upperback 1.84597 -8.16791 3.53937
thorax -3.56737 -4.00255 9.26528
lowerneck 7.26878 -21.2625 -14.8089
upperneck 30.5443 -39.2891 15.6667
head 16.4138 -18.4459 2.19377
rclavicle -6.36111e-015 2.06736e-014
rhumerus -29.9324 -6.69657 -80.2418
rradius 32.8203
rwrist 6.0057
rhand -13.6251 8.74653
rfingers 7.12502
rthumb 12.4906 -20.8602
lclavicle -6.36111e-015 2.06736e-014
lhumerus -40.0818 11.0122 72.974
lradius 37.7977
lwrist -0.670436
lhand -20.3863 27.5617
lfingers 7.12502
lthumb 5.96684 57.4577
rfemur -10.731 8.97505 16.4457
rtibia 55.9102
rfoot -8.98361 -1.48726
rtoes -2.12176
lfemur -9.91176 2.68747 -23.5551
ltibia 16.8219
lfoot -1.68562 -2.17068
ltoes 1.09905
2593
root 4.57291 18.0061 8.41798 1073.39 -54.0193 -352.417
lowerback 12.675 -5.38234 -7.60579
upperback 1.83115 -8.06318 3.55005
thorax -3.54359 -3.95168 9.21637
lowerneck 7.21557 -21.3168 -14.6562
upperneck 30.6419 -39.299 15.4658
head 16.3713 -18.4389 2.10974
rclavicle -2.20651e-014 -2.3059e-014
rhumerus -29.9093 -6.84313 -80.1518
rradius 32.8503
rwrist 5.95404
rhand -13.8661 8.60403
rfingers 7.12502
rthumb 12.2582 -21.0167
lclavicle -2.20651e-014 -2.3059e-014
lhumerus -40.4309 11.2152 72.8191
lradius 37.6398
lwrist -0.935641
lhand -20.6023 27.6031
lfingers 7.12502
lthumb 5.75834 57.5048
rfemur -9.60909 9.56102 16.4089
rtibia 54.7676
rfoot -8.67437 -0.7353
rtoes -0.10386
lfemur -10.347 2.71274 -23.4371
ltibia 16.8328
lfoot -1.30363 -2.18372
ltoes 2.46259
2594
root 4.63173 17.9909 8.32957 1073.55 -54.076 -352.502
lowerback 12.5395 -5.32313 -7.43909
upperback 1.83288 -7.95252 3.54846
thorax -3.51379 -3.89978 9.0918
lowerneck 7.3047 -21.3781 -14.4845
upperneck 30.518 -39.364 15.5271
head 16.2829 -18.4616 2.12223
rclavicle 6.40087e-014 0
rhumerus -29.7824 -7.3517 -80.0371
rradius 32.7163
rwrist 6.16207
rhand -13.8701 8.73237
rfingers 7.12502
rthumb 12.2544 -20.8886
lclavicle 6.40087e-014 0
lhumerus -40.6608 11.269 72.6995
lradius 37.4482
lwrist -1.01169
lhand -20.8326 27.544
lfingers 7.12502
lthumb 5.53598 57.4517
rfemur -8.49984 10.2454 16.4858
rtibia 53.515
rfoot -8.13825 -0.116915
rtoes 1.02864
lfemur -10.8062 2.54751 -23.2174
ltibia 16.8164
lfoot -0.918117 -2.10097
ltoes 2.78301
2595
root 4.6929 17.9861 8.24294 1073.7 -54.0707 -352.564
lowerback 12.4494 -5.27783 -7.26725
upperback 1.8215 -7.86236 3.56644
thorax -3.51579 -3.8558 8.99486
lowerneck 7.33425 -21.4582 -14.3663
upperneck 30.4375 -39.4426 15.5323
head 16.2252 -18.4874 2.10481
rclavicle -4.96962e-015 -3.18055e-015
rhumerus -29.5909 -7.67678 -79.9164
rradius 32.542
rwrist 6.46348
rhand -13.7076 8.90367
rfingers 7.12502
rthumb 12.411 -20.7079
lclavicle -4.96962e-015 -3.18055e-015
lhumerus -40.8742 11.3223 72.6365
lradius 37.2799
lwrist -1.20426
lhand -20.8681 27.4328
lfingers 7.12502
lthumb 5.50166 57.3414
rfemur -7.39023 10.8217 16.5324
rtibia 52.0915
rfoot -7.68732 0.241021
rtoes -0.562873
lfemur -11.286 2.19003 -23.0324
ltibia 16.8539
lfoot -0.58671 -1.87503
ltoes 2.61333
2596
root 4.75031 17.9813 8.15637 1073.77 -54.2106 -352.547
lowerback 12.4038 -5.20067 -7.16154
upperback 1.77557 -7.74204 3.57782
thorax -3.57653 -3.79112 8.93371
lowerneck 7.35414 -21.4667 -14.3316
upperneck 30.504 -39.4566 15.4734
head 16.2317 -18.4914 2.08236
rclavicle 8.38871e-014 3.18055e-015
rhumerus -29.5195 -7.80763 -79.9157
rradius 32.4572
rwrist 6.60549
rhand -13.834 8.90232
rfingers 7.12502
rthumb 12.2892 -20.7166
lclavicle 8.38871e-014 3.18055e-015
lhumerus -41.2085 11.3076 72.5592
lradius 37.1427
lwrist -1.22963
lhand -20.6061 27.5153
lfingers 7.12502
lthumb 5.75467 57.4172
rfemur -6.26538 11.5352 16.5642
rtibia 50.5037
rfoot -7.74593 0.852518
rtoes -3.37548
lfemur -11.7096 1.98445 -22.8603
ltibia 16.8646
lfoot -0.300807 -1.67458
ltoes 2.58757
2597
root 4.8057 17.9718 8.06866 1073.87 -54.4886 -352.506
lowerback 12.2504 -5.12144 -7.07253
upperback 1.74385 -7.61446 3.60305
thorax -3.55974 -3.72811 8.88069
lowerneck 7.41481 -21.3901 -14.513
upperneck 30.5841 -39.4346 15.556
head 16.3314 -18.4913 2.12935
rclavicle -4.01545e-014 -4.77083e-015
rhumerus -29.4334 -7.8045 -79.909
rradius 32.4502
rwrist 6.53835
rhand -13.8701 8.74676
rfingers 7.12502
rthumb 12.2543 -20.8742
lclavicle -4.01545e-014 -4.77083e-015
lhumerus -41.4924 11.3667 72.4817
lradius 36.9808
lwrist -0.958328
lhand -20.5345 27.5995
lfingers 7.12502
lthumb 5.8238 57.4994
rfemur -5.21424 12.3564 16.5919
rtibia 48.7625
rfoot -7.71239 1.70583
rtoes -4.996
lfemur -12.1816 1.83865 -22.6614
ltibia 16.8557
lfoot 0.0546481 -1.34845
ltoes 3.07566
2598
root 4.86868 17.9544 7.96923 1074.09 -54.6243 -352.616
lowerback 12.2558 -5.06406 -6.97922
upperback 1.70992 -7.52356 3.67567
thorax -3.61878 -3.67939 8.90096
lowerneck 7.39839 -21.3608 -14.6056
upperneck 30.6265 -39.4347 15.6085
head 16.3981 -18.488 2.14655
rclavicle 1.4889e-013 -1.90833e-014
rhumerus -29.3253 -7.51244 -79.8787
rradius 32.5304
rwrist 6.06009
rhand -13.8504 8.66212
rfingers 7.12502
rthumb 12.2733 -20.9577
lclavicle 1.4889e-013 -1.90833e-014
lhumerus -41.6621 11.5204 72.3978
lradius 36.7916
lwrist -0.854035
lhand -20.8164 27.3944
lfingers 7.12502
lthumb 5.55159 57.3016
rfemur -4.19169 12.9627 16.7633
rtibia 46.8959
rfoot -7.91662 2.38277
rtoes -6.75356
lfemur -12.7613 2.08262 -22.42
ltibia 16.8864
lfoot 0.402586 -1.55731
ltoes 1.88069
2599
root 4.92993 17.939 7.87121 1074.37 -54.7857 -352.76
lowerback 12.2311 -5.0006 -6.85177
upperback 1.66911 -7.4179 3.75703
thorax -3.67464 -3.62369 8.90648
lowerneck 7.32501 -21.332 -14.662
upperneck 30.697 -39.4091 15.6042
head 16.4558 -18.4679 2.1418
rclavicle 1.18078e-013 -7.15625e-015
rhumerus -29.2355 -7.13281 -79.8445
rradius 32.6282
rwrist 5.55931
rhand -13.8977 8.74189
rfingers 7.12502
rthumb 12.2277 -20.8807
lclavicle 1.18078e-013 -7.15625e-015
lhumerus -41.8794 11.8228 72.2534
lradius 36.5753
lwrist -1.21424
lhand -20.6956 26.9626
lfingers 7.12502
lthumb 5.66828 56.8668
rfemur -3.18856 13.5745 16.972
rtibia 44.9287
rfoot -9.20222 2.92955
rtoes -7.79771
lfemur -13.3669 2.22989 -22.1289
ltibia 16.9461
lfoot 0.713959 -1.68848
ltoes 1.10726
2600
root 4.98947 17.9362 7.77865 1074.73 -55.0174 -352.991
lowerback 12.1498 -4.96096 -6.60772
upperback 1.62532 -7.32559 3.83425
thorax -3.71521 -3.57681 8.83607
lowerneck 7.24655 -21.2808 -14.7287
upperneck 30.8039 -39.3498 15.5635
head 16.5167 -18.4366 2.13348
rclavicle 3.79679e-014 -3.97569e-014
rhumerus -29.1548 -6.90163 -79.7844
rradius 32.7418
rwrist 5.38926
rhand -13.8546 8.88677
rfingers 7.12502
rthumb 12.2693 -20.7333
lclavicle 3.79679e-014 -3.97569e-014
lhumerus -42.2465 12.1807 72.1
lradius 36.5078
lwrist -1.54586
lhand -20.5481 26.884
lfingers 7.12502
lthumb 5.81063 56.7843
rfemur -2.29655 14.1205 17.1938
rtibia 42.8976
rfoot -11.0071 2.86592
rtoes -9.40526
lfemur -13.9602 1.80356 -21.6993
ltibia 17.0601
lfoot 1.04017 -1.01604
ltoes 3.03065
